<svg xmlns="http://www.w3.org/2000/svg" viewBox="0 0 200 200" role="img" aria-label="مكتبة البيان">
  <defs>
    <radialGradient id="lm-disc" cx="50%" cy="30%" r="80%">
      <stop offset="0%" stop-color="#1F3A2E"/>
      <stop offset="100%" stop-color="#122318"/>
    </radialGradient>
    <linearGradient id="lm-gold" x1="0%" y1="0%" x2="0%" y2="100%">
      <stop offset="0%" stop-color="#E8C574"/>
      <stop offset="100%" stop-color="#A8761E"/>
    </linearGradient>
  </defs>

  <circle cx="100" cy="100" r="94" fill="url(#lm-disc)"/>
  <circle cx="100" cy="100" r="91" fill="none" stroke="url(#lm-gold)" stroke-width="3"/>
  <circle cx="100" cy="100" r="86" fill="none" stroke="#E8C574" stroke-width="0.75" opacity="0.55"/>

  <g fill="#E8C574" fill-opacity="0.15">
    <polygon points="54,54 146,54 146,146 54,146"/>
    <polygon points="100,35 165,100 100,165 35,100"/>
  </g>
  <g fill="none" stroke="url(#lm-gold)" stroke-width="2.25" stroke-linejoin="round">
    <polygon points="54,54 146,54 146,146 54,146"/>
    <polygon points="100,35 165,100 100,165 35,100"/>
  </g>

  <g fill="none" stroke="#FDFAF0" stroke-width="8" stroke-linecap="round" stroke-linejoin="round">
    <path d="M 72 96 Q 72 124, 100 124 Q 128 124, 128 96"/>
    <path d="M 128 96 L 128 82"/>
    <path d="M 72 96 L 72 82"/>
  </g>
  <circle cx="100" cy="138" r="4.5" fill="url(#lm-gold)"/>
</svg>
